<mxfile host="app.diagrams.net" modified="2022-04-06T06:55:49.753Z" agent="5.0 (Windows NT 10.0; Win64; x64) AppleWebKit/537.36 (KHTML, like Gecko) Chrome/100.0.4896.75 Safari/537.36" etag="PV_MltlwnrvfqzrKH5E2" version="17.2.4" type="github" pages="5">
  <diagram id="ET1rWU0EEhqpAfRxdVAD" name="ページ1">
    <mxGraphModel dx="1422" dy="800" grid="1" gridSize="10" guides="1" tooltips="1" connect="1" arrows="1" fold="1" page="1" pageScale="1" pageWidth="690" pageHeight="980" math="0" shadow="0">
      <root>
        <mxCell id="0" />
        <mxCell id="LsM9NP8UI1p0ghTYnCp4-2" value="軸" parent="0" />
        <mxCell id="LsM9NP8UI1p0ghTYnCp4-3" value="" style="endArrow=none;html=1;curved=1;" parent="LsM9NP8UI1p0ghTYnCp4-2" edge="1">
          <mxGeometry width="50" height="50" relative="1" as="geometry">
            <mxPoint x="40" y="280" as="sourcePoint" />
            <mxPoint x="640" y="280" as="targetPoint" />
          </mxGeometry>
        </mxCell>
        <mxCell id="LsM9NP8UI1p0ghTYnCp4-5" value="" style="endArrow=none;html=1;curved=1;" parent="LsM9NP8UI1p0ghTYnCp4-2" edge="1">
          <mxGeometry width="50" height="50" relative="1" as="geometry">
            <mxPoint x="80" y="390" as="sourcePoint" />
            <mxPoint x="80" y="120" as="targetPoint" />
          </mxGeometry>
        </mxCell>
        <mxCell id="1" style="" parent="0" />
        <mxCell id="LsM9NP8UI1p0ghTYnCp4-1" value="" style="endArrow=none;html=1;curved=1;" parent="1" edge="1">
          <mxGeometry width="50" height="50" relative="1" as="geometry">
            <mxPoint x="80" y="280" as="sourcePoint" />
            <mxPoint x="640" y="260" as="targetPoint" />
            <Array as="points">
              <mxPoint x="100" y="50" />
              <mxPoint x="130" y="470" />
              <mxPoint x="170" y="170" />
              <mxPoint x="220" y="340" />
              <mxPoint x="280" y="230" />
              <mxPoint x="340" y="320" />
              <mxPoint x="410" y="250" />
              <mxPoint x="480" y="300" />
              <mxPoint x="530" y="260" />
            </Array>
          </mxGeometry>
        </mxCell>
      </root>
    </mxGraphModel>
  </diagram>
  <diagram id="omP2X6Rsu3iXF8uPQoC1" name="ページ2">
    <mxGraphModel dx="868" dy="486" grid="1" gridSize="10" guides="1" tooltips="1" connect="1" arrows="1" fold="1" page="1" pageScale="1" pageWidth="690" pageHeight="980" math="0" shadow="0">
      <root>
        <mxCell id="0" />
        <mxCell id="1" style="" parent="0" />
        <mxCell id="nULb1FPFuR7SA9_8DOTp-1" value="" style="endArrow=none;html=1;curved=1;" parent="1" edge="1">
          <mxGeometry width="50" height="50" relative="1" as="geometry">
            <mxPoint x="40" y="280" as="sourcePoint" />
            <mxPoint x="640" y="280" as="targetPoint" />
          </mxGeometry>
        </mxCell>
        <mxCell id="nULb1FPFuR7SA9_8DOTp-2" value="" style="endArrow=none;html=1;curved=1;" parent="1" edge="1">
          <mxGeometry width="50" height="50" relative="1" as="geometry">
            <mxPoint x="80" y="390" as="sourcePoint" />
            <mxPoint x="80" y="120" as="targetPoint" />
          </mxGeometry>
        </mxCell>
        <mxCell id="nULb1FPFuR7SA9_8DOTp-3" value="" style="endArrow=none;html=1;curved=1;" parent="1" edge="1">
          <mxGeometry width="50" height="50" relative="1" as="geometry">
            <mxPoint x="80" y="170" as="sourcePoint" />
            <mxPoint x="640" y="280" as="targetPoint" />
            <Array as="points">
              <mxPoint x="120" y="480" />
              <mxPoint x="180" y="170" />
              <mxPoint x="220" y="340" />
              <mxPoint x="280" y="230" />
              <mxPoint x="340" y="320" />
              <mxPoint x="410" y="250" />
              <mxPoint x="480" y="300" />
              <mxPoint x="540" y="270" />
              <mxPoint x="550" y="280" />
            </Array>
          </mxGeometry>
        </mxCell>
        <mxCell id="Qdnq5HI7Ty7nsTcQtikE-8" value="名称未設定レイヤ" parent="0" />
        <mxCell id="Qdnq5HI7Ty7nsTcQtikE-9" value="" style="endArrow=none;html=1;rounded=0;strokeColor=#3399FF;" parent="Qdnq5HI7Ty7nsTcQtikE-8" edge="1">
          <mxGeometry width="50" height="50" relative="1" as="geometry">
            <mxPoint x="120" y="320" as="sourcePoint" />
            <mxPoint x="230" y="150" as="targetPoint" />
          </mxGeometry>
        </mxCell>
        <mxCell id="Qdnq5HI7Ty7nsTcQtikE-4" value="名称未設定レイヤ" style="" parent="0" />
        <mxCell id="Qdnq5HI7Ty7nsTcQtikE-5" value="" style="ellipse;whiteSpace=wrap;html=1;shadow=0;strokeColor=none;fillColor=#CC0066;" parent="Qdnq5HI7Ty7nsTcQtikE-4" vertex="1">
          <mxGeometry x="169" y="230" width="10" height="10" as="geometry" />
        </mxCell>
      </root>
    </mxGraphModel>
  </diagram>
  <diagram id="fAPzmRqNiwj1P6DxCXgJ" name="ページ4">
    <mxGraphModel dx="868" dy="486" grid="1" gridSize="10" guides="1" tooltips="1" connect="1" arrows="1" fold="1" page="1" pageScale="1" pageWidth="690" pageHeight="980" math="0" shadow="0">
      <root>
        <mxCell id="0" />
        <mxCell id="1" parent="0" />
        <mxCell id="Cn6xYpjeEDleOCt04yCo-1" value="" style="shape=image;verticalLabelPosition=bottom;labelBackgroundColor=default;verticalAlign=top;aspect=fixed;imageAspect=0;image=https://afrel.co.jp/cms/wp-content/uploads/2013/04/kakudo-660x268.png;clipPath=inset(2.46% 95.33% 15.57% 0%);" vertex="1" parent="1">
          <mxGeometry x="77" y="166" width="29.540000000000003" height="211" as="geometry" />
        </mxCell>
        <mxCell id="-S6IZ0IZKDMnMRYJ-QOy-1" value="" style="endArrow=none;html=1;rounded=0;" edge="1" parent="1">
          <mxGeometry width="50" height="50" relative="1" as="geometry">
            <mxPoint x="120" y="280" as="sourcePoint" />
            <mxPoint x="280" y="320" as="targetPoint" />
          </mxGeometry>
        </mxCell>
        <mxCell id="-S6IZ0IZKDMnMRYJ-QOy-2" value="" style="endArrow=none;html=1;rounded=0;" edge="1" parent="1">
          <mxGeometry width="50" height="50" relative="1" as="geometry">
            <mxPoint x="120" y="280" as="sourcePoint" />
            <mxPoint x="280" y="240" as="targetPoint" />
          </mxGeometry>
        </mxCell>
        <mxCell id="-S6IZ0IZKDMnMRYJ-QOy-3" value="" style="rounded=0;whiteSpace=wrap;html=1;" vertex="1" parent="1">
          <mxGeometry x="280" y="200" width="20" height="160" as="geometry" />
        </mxCell>
        <mxCell id="-S6IZ0IZKDMnMRYJ-QOy-4" value="" style="shape=image;verticalLabelPosition=bottom;labelBackgroundColor=default;verticalAlign=top;aspect=fixed;imageAspect=0;image=https://afrel.co.jp/cms/wp-content/uploads/2013/04/kakudo-660x268.png;clipPath=inset(2.46% 95.33% 15.57% 0%);" vertex="1" parent="1">
          <mxGeometry x="370" y="174.5" width="29.540000000000003" height="211" as="geometry" />
        </mxCell>
        <mxCell id="-S6IZ0IZKDMnMRYJ-QOy-5" value="" style="endArrow=none;html=1;rounded=0;entryX=0.92;entryY=0.859;entryDx=0;entryDy=0;entryPerimeter=0;" edge="1" parent="1" target="-S6IZ0IZKDMnMRYJ-QOy-7">
          <mxGeometry width="50" height="50" relative="1" as="geometry">
            <mxPoint x="413" y="288.5" as="sourcePoint" />
            <mxPoint x="573" y="328.5" as="targetPoint" />
          </mxGeometry>
        </mxCell>
        <mxCell id="-S6IZ0IZKDMnMRYJ-QOy-6" value="" style="endArrow=none;html=1;rounded=0;" edge="1" parent="1">
          <mxGeometry width="50" height="50" relative="1" as="geometry">
            <mxPoint x="413" y="288.5" as="sourcePoint" />
            <mxPoint x="573" y="248.5" as="targetPoint" />
          </mxGeometry>
        </mxCell>
        <mxCell id="-S6IZ0IZKDMnMRYJ-QOy-7" value="" style="rounded=0;whiteSpace=wrap;html=1;rotation=-10;" vertex="1" parent="1">
          <mxGeometry x="573" y="208.5" width="20" height="160" as="geometry" />
        </mxCell>
        <mxCell id="-S6IZ0IZKDMnMRYJ-QOy-8" value="&lt;font style=&quot;font-size: 80px&quot; face=&quot;Tahoma&quot; color=&quot;#3399ff&quot;&gt;○&lt;/font&gt;" style="text;html=1;strokeColor=none;fillColor=none;align=center;verticalAlign=middle;whiteSpace=wrap;rounded=0;" vertex="1" parent="1">
          <mxGeometry x="120" y="110" width="140" height="70" as="geometry" />
        </mxCell>
        <mxCell id="-S6IZ0IZKDMnMRYJ-QOy-9" value="&lt;font color=&quot;#ff0080&quot; face=&quot;Tahoma&quot;&gt;&lt;span style=&quot;font-size: 80px&quot;&gt;△&lt;/span&gt;&lt;/font&gt;" style="text;html=1;strokeColor=none;fillColor=none;align=center;verticalAlign=middle;whiteSpace=wrap;rounded=0;" vertex="1" parent="1">
          <mxGeometry x="410" y="110" width="140" height="70" as="geometry" />
        </mxCell>
      </root>
    </mxGraphModel>
  </diagram>
  <diagram id="u4Fv8LM6MaaAoSvZXgmZ" name="ページ5">
    <mxGraphModel dx="1422" dy="800" grid="1" gridSize="10" guides="1" tooltips="1" connect="1" arrows="1" fold="1" page="1" pageScale="1" pageWidth="690" pageHeight="980" math="0" shadow="0">
      <root>
        <mxCell id="0" />
        <mxCell id="1" parent="0" />
        <mxCell id="Rc5j8lJwcPHZneELmxJn-1" value="" style="ellipse;whiteSpace=wrap;html=1;aspect=fixed;fontFamily=Tahoma;fontSize=80;fontColor=#3399FF;gradientColor=#E6E6E6;strokeColor=none;" parent="1" vertex="1">
          <mxGeometry x="80" y="40" width="500" height="500" as="geometry" />
        </mxCell>
        <mxCell id="Rc5j8lJwcPHZneELmxJn-2" value="&lt;font color=&quot;#162e80&quot; data-font-src=&quot;https://fonts.googleapis.com/css?family=Lobster&quot; face=&quot;Lobster&quot; style=&quot;font-size: 200px&quot;&gt;WiLLs&lt;/font&gt;" style="text;html=1;strokeColor=none;fillColor=none;align=center;verticalAlign=middle;whiteSpace=wrap;rounded=0;fontFamily=Tahoma;fontSize=80;fontColor=#3399FF;" parent="1" vertex="1">
          <mxGeometry x="130" y="212" width="380" height="130" as="geometry" />
        </mxCell>
      </root>
    </mxGraphModel>
  </diagram>
  <diagram id="kTJChaocbjen61kLTCRk" name="ページ6">
    <mxGraphModel dx="1673" dy="941" grid="1" gridSize="10" guides="1" tooltips="1" connect="1" arrows="1" fold="1" page="1" pageScale="1" pageWidth="1654" pageHeight="1169" math="0" shadow="0">
      <root>
        <mxCell id="0" />
        <mxCell id="1" style="" parent="0" />
        <mxCell id="AV3bDp4HS1f42JKpR1St-1" value="" style="endArrow=none;html=1;rounded=0;" edge="1" parent="1">
          <mxGeometry width="50" height="50" relative="1" as="geometry">
            <mxPoint x="240" y="880" as="sourcePoint" />
            <mxPoint x="240" y="320" as="targetPoint" />
          </mxGeometry>
        </mxCell>
        <mxCell id="AV3bDp4HS1f42JKpR1St-2" value="" style="endArrow=none;html=1;rounded=0;" edge="1" parent="1">
          <mxGeometry width="50" height="50" relative="1" as="geometry">
            <mxPoint x="200" y="840" as="sourcePoint" />
            <mxPoint x="720" y="840" as="targetPoint" />
          </mxGeometry>
        </mxCell>
        <mxCell id="AV3bDp4HS1f42JKpR1St-3" value="" style="endArrow=none;html=1;rounded=0;strokeColor=#00CC66;" edge="1" parent="1">
          <mxGeometry width="50" height="50" relative="1" as="geometry">
            <mxPoint x="240" y="400" as="sourcePoint" />
            <mxPoint x="720" y="400" as="targetPoint" />
          </mxGeometry>
        </mxCell>
        <mxCell id="AV3bDp4HS1f42JKpR1St-5" value="" style="endArrow=none;html=1;strokeColor=#FF0080;curved=1;" edge="1" parent="1">
          <mxGeometry width="50" height="50" relative="1" as="geometry">
            <mxPoint x="240" y="480" as="sourcePoint" />
            <mxPoint x="440" y="480" as="targetPoint" />
          </mxGeometry>
        </mxCell>
        <mxCell id="AV3bDp4HS1f42JKpR1St-6" value="" style="endArrow=none;html=1;strokeColor=#FF0080;curved=1;" edge="1" parent="1">
          <mxGeometry width="50" height="50" relative="1" as="geometry">
            <mxPoint x="440" y="480" as="sourcePoint" />
            <mxPoint x="610" y="820" as="targetPoint" />
            <Array as="points">
              <mxPoint x="500" y="470" />
              <mxPoint x="530" y="820" />
            </Array>
          </mxGeometry>
        </mxCell>
        <mxCell id="AV3bDp4HS1f42JKpR1St-7" value="" style="endArrow=none;html=1;strokeColor=#FF0080;curved=1;" edge="1" parent="1">
          <mxGeometry width="50" height="50" relative="1" as="geometry">
            <mxPoint x="610" y="820" as="sourcePoint" />
            <mxPoint x="720" y="820" as="targetPoint" />
          </mxGeometry>
        </mxCell>
        <mxCell id="AV3bDp4HS1f42JKpR1St-13" value="&lt;font face=&quot;Zen Kurenaido&quot; style=&quot;font-size: 25px&quot;&gt;S&lt;/font&gt;" style="text;html=1;strokeColor=none;fillColor=none;align=center;verticalAlign=middle;whiteSpace=wrap;rounded=0;" vertex="1" parent="1">
          <mxGeometry x="710" y="820" width="60" height="30" as="geometry" />
        </mxCell>
        <mxCell id="AV3bDp4HS1f42JKpR1St-14" value="&lt;font face=&quot;Zen Kurenaido&quot;&gt;&lt;span style=&quot;font-size: 25px&quot;&gt;Power&lt;/span&gt;&lt;/font&gt;" style="text;html=1;strokeColor=none;fillColor=none;align=center;verticalAlign=middle;whiteSpace=wrap;rounded=0;" vertex="1" parent="1">
          <mxGeometry x="210" y="280" width="60" height="30" as="geometry" />
        </mxCell>
        <mxCell id="AV3bDp4HS1f42JKpR1St-15" value="&lt;font face=&quot;Zen Kurenaido&quot; data-font-src=&quot;https://fonts.googleapis.com/css?family=Zen+Kurenaido&quot;&gt;&lt;font color=&quot;#00cc00&quot;&gt;緑&lt;/font&gt;:目標値&lt;br&gt;&lt;/font&gt;&lt;div&gt;&lt;font face=&quot;Zen Kurenaido&quot; data-font-src=&quot;https://fonts.googleapis.com/css?family=Zen+Kurenaido&quot;&gt;&lt;font color=&quot;#ff0080&quot;&gt;赤&lt;/font&gt;:実際の値&lt;/font&gt;&lt;/div&gt;" style="text;html=1;strokeColor=none;fillColor=none;align=left;verticalAlign=middle;whiteSpace=wrap;rounded=0;fontSize=25;" vertex="1" parent="1">
          <mxGeometry x="597" y="460" width="153" height="110" as="geometry" />
        </mxCell>
        <mxCell id="AV3bDp4HS1f42JKpR1St-9" value="名称未設定レイヤ" parent="0" />
        <mxCell id="AV3bDp4HS1f42JKpR1St-10" value="" style="ellipse;whiteSpace=wrap;html=1;rotation=75;fillColor=none;strokeColor=#3399FF;strokeWidth=2;" vertex="1" parent="AV3bDp4HS1f42JKpR1St-9">
          <mxGeometry x="441.12" y="463.1" width="60" height="55.97" as="geometry" />
        </mxCell>
      </root>
    </mxGraphModel>
  </diagram>
</mxfile>
